<?xml version="1.0" encoding="UTF-8"?>
<!DOCTYPE svg PUBLIC "-//W3C//DTD SVG 1.1//EN" "http://www.w3.org/Graphics/SVG/1.1/DTD/svg11.dtd">
<!-- Creator: CorelDRAW 2020 (64-Bit) -->
<svg xmlns="http://www.w3.org/2000/svg" xml:space="preserve" width="9.44882in" height="9.44882in" version="1.1" style="shape-rendering:geometricPrecision; text-rendering:geometricPrecision; image-rendering:optimizeQuality; fill-rule:evenodd; clip-rule:evenodd"
viewBox="0 0 9448.82 9448.82"
 xmlns:xlink="http://www.w3.org/1999/xlink"
 xmlns:xodm="http://www.corel.com/coreldraw/odm/2003">
 <defs>
  <style type="text/css">
   <![CDATA[
    .fil0 {fill:#8400FF}
    .fil1 {fill:white;fill-rule:nonzero}
   ]]>
  </style>
 </defs>
 <g id="Layer_x0020_1">
  <metadata id="CorelCorpID_0Corel-Layer"/>
  <circle class="fil0" cx="4722.15" cy="4726.67" r="4724.41"/>
  <path id="code-solid-full.svg" class="fil1" d="M5664.59 1425.86c-220.22,-63.48 -449.52,64.77 -513,285l-1658.18 5803.61c-63.48,220.22 64.77,449.52 285,513 220.22,63.48 449.52,-64.77 513,-285l1658.17 -5803.61c63.48,-220.22 -64.77,-449.52 -285,-513zm836.86 1763.11c-161.93,161.93 -161.93,424.91 0,586.84l950.86 950.86 -950.86 950.86c-161.93,161.93 -161.93,424.91 0,586.84 161.93,161.93 424.91,161.93 586.84,0l1243.63 -1243.63c161.93,-161.93 161.93,-424.91 0,-586.84l-1243.63 -1243.63c-161.93,-161.93 -424.91,-161.93 -586.84,0l0 -1.29zm-3558.6 0c-161.93,-161.93 -424.91,-161.93 -586.84,0l-1243.63 1243.63c-161.93,161.93 -161.93,424.91 0,586.84l1243.63 1243.63c161.93,161.93 424.91,161.93 586.84,0 161.93,-161.93 161.93,-424.91 0,-586.84l-950.86 -949.56 949.57 -950.86c161.93,-161.93 161.93,-424.91 0,-586.84l1.29 0z"/>
 </g>
</svg>
