<?xml version="1.0" encoding="UTF-8"?>
<!DOCTYPE svg PUBLIC "-//W3C//DTD SVG 1.1//EN" "http://www.w3.org/Graphics/SVG/1.1/DTD/svg11.dtd">
<!-- Creator: CorelDRAW 2020 (64-Bit) -->
<svg xmlns="http://www.w3.org/2000/svg" xml:space="preserve" width="14.5669in" height="14.5669in" version="1.1" style="shape-rendering:geometricPrecision; text-rendering:geometricPrecision; image-rendering:optimizeQuality; fill-rule:evenodd; clip-rule:evenodd"
viewBox="0 0 14566.93 14566.93"
 xmlns:xlink="http://www.w3.org/1999/xlink"
 xmlns:xodm="http://www.corel.com/coreldraw/odm/2003">
 <defs>
  <style type="text/css">
   <![CDATA[
    .fil0 {fill:#8400FF}
    .fil1 {fill:white;fill-rule:nonzero}
   ]]>
  </style>
 </defs>
 <g id="Layer_x0020_1">
  <metadata id="CorelCorpID_0Corel-Layer"/>
  <rect class="fil0" x="-3.2" y="3.2" width="14566.93" height="14566.93"/>
  <circle class="fil0" cx="7281.21" cy="7285.72" r="7283.46"/>
  <path id="code-solid-full.svg" class="fil1" d="M8409.28 3334.77c-263.6,-75.98 -538.06,77.53 -614.04,341.14l-1984.78 6946.72c-75.98,263.6 77.53,538.06 341.14,614.04 263.6,75.98 538.06,-77.53 614.04,-341.14l1984.78 -6946.72c75.98,-263.6 -77.53,-538.06 -341.13,-614.04zm1001.69 2110.38c-193.83,193.82 -193.83,508.6 0,702.43l1138.15 1138.15 -1138.15 1138.15c-193.83,193.83 -193.83,508.6 0,702.43 193.82,193.83 508.6,193.83 702.43,0l1488.58 -1488.58c193.83,-193.83 193.83,-508.6 0,-702.43l-1488.58 -1488.58c-193.83,-193.83 -508.6,-193.83 -702.43,0l0 -1.55zm-4259.52 0c-193.83,-193.83 -508.6,-193.83 -702.43,0l-1488.59 1488.58c-193.83,193.83 -193.83,508.6 0,702.43l1488.59 1488.58c193.83,193.83 508.6,193.83 702.43,0 193.83,-193.83 193.83,-508.6 0,-702.43l-1138.15 -1136.59 1136.6 -1138.15c193.83,-193.83 193.83,-508.6 0,-702.43l1.55 0z"/>
 </g>
</svg>
